<?xml version="1.0" encoding="utf-8"?>
<!-- Generator: Adobe Illustrator 15.0.0, SVG Export Plug-In . SVG Version: 6.00 Build 0)  -->
<!DOCTYPE svg PUBLIC "-//W3C//DTD SVG 1.1//EN" "http://www.w3.org/Graphics/SVG/1.1/DTD/svg11.dtd">
<svg version="1.1" id="Layer_1" xmlns="http://www.w3.org/2000/svg" xmlns:xlink="http://www.w3.org/1999/xlink" x="0px" y="0px"
	 width="923px" height="208px" viewBox="0 0 923 208" enable-background="new 0 0 923 208" xml:space="preserve">
<g>
	<g>
		<defs>
			<rect id="SVGID_1_" x="109.891" y="19.339" width="703.218" height="169.321"/>
		</defs>
		<clipPath id="SVGID_2_">
			<use xlink:href="#SVGID_1_"  overflow="visible"/>
		</clipPath>
		<path clip-path="url(#SVGID_2_)" fill="#284BA0" d="M389.638,76.643c2.917-9.762,7.354-18.863,13.038-27.038
			c-15.53-18.498-38.816-30.266-64.859-30.266c-46.757,0-84.661,37.903-84.661,84.661h-0.004c0,32.363-26.236,58.6-58.6,58.6
			c-32.363,0-58.599-26.236-58.599-58.6c0-32.364,26.236-58.599,58.599-58.599c22.486,0,42.003,12.671,51.829,31.256
			c2.916-9.764,7.352-18.866,13.036-27.044c-15.53-18.502-38.818-30.273-64.865-30.273c-46.757,0-84.661,37.903-84.661,84.661
			c0,46.758,37.904,84.66,84.661,84.66c46.757,0,84.661-37.902,84.661-84.66h0.005c0-32.364,26.235-58.599,58.599-58.599
			C360.296,45.401,379.81,58.065,389.638,76.643 M565.719,104c0-46.757-37.904-84.661-84.662-84.661
			c-46.756,0-84.659,37.903-84.659,84.661c0,0.146,0.007,0.291,0.007,0.436c-0.235,32.162-26.371,58.164-58.588,58.164
			c-22.492,0-42.013-12.678-51.836-31.271c-2.915,9.768-7.351,18.871-13.035,27.051c15.53,18.508,38.821,30.281,64.871,30.281
			c46.757,0,84.662-37.902,84.662-84.66c0-0.121-0.01-0.24-0.011-0.361c0.196-32.197,26.349-58.238,58.589-58.238
			c32.365,0,58.602,26.235,58.602,58.599c0,32.363-26.236,58.6-58.602,58.6c-22.484,0-42.002-12.672-51.827-31.258
			c-2.917,9.766-7.354,18.869-13.037,27.045c15.529,18.502,38.818,30.273,64.864,30.273C527.814,188.66,565.719,150.758,565.719,104
			"/>
	</g>
	<polygon fill="#284BA0" points="227.409,67.873 214.122,67.873 214.122,117.451 171.384,67.873 161.695,67.873 161.695,140.127 
		174.983,140.127 174.983,90.549 217.721,140.127 227.409,140.127 	"/>
	<g>
		<defs>
			<rect id="SVGID_3_" x="109.891" y="19.339" width="703.218" height="169.321"/>
		</defs>
		<clipPath id="SVGID_4_">
			<use xlink:href="#SVGID_3_"  overflow="visible"/>
		</clipPath>
		<path clip-path="url(#SVGID_4_)" fill="#284BA0" d="M343.733,99.763v12.561h16.665c-2.606,8.902-9.585,16.453-21.575,16.453
			c-13.661,0-24.775-11.115-24.775-24.777c0-13.663,11.114-24.778,24.775-24.778c7.85,0,15.207,3.751,19.853,9.957l10.918-7.577
			c-7.115-9.755-18.554-15.668-30.771-15.668c-20.988,0-38.063,17.077-38.063,38.066c0,20.99,17.075,38.066,38.063,38.066
			c10.478,0,19.881-4.08,26.477-11.488c6.172-6.932,9.572-16.371,9.572-26.578c0-1.417-0.088-2.833-0.244-4.237H343.733z"/>
		<path clip-path="url(#SVGID_4_)" fill="#284BA0" d="M502.988,118.35c0,5.324-4.33,9.654-9.654,9.654h-28.381v-19.242h28.381
			C498.658,108.762,502.988,113.025,502.988,118.35 M499.73,88.623c0,4.739-3.855,8.45-8.594,8.45h-26.184V80.028h26.184
			C495.875,80.028,499.73,83.884,499.73,88.623 M513.422,87.517c0-10.85-8.797-19.645-19.645-19.645h-41.709v72.252h43.668
			c11.396,0,20.637-9.238,20.637-20.637c0-9.768-7.521-15.506-11.488-17.353C507.844,100.259,513.422,95.024,513.422,87.517"/>
	</g>
	<polygon fill="#F6C515" points="319.857,27.04 318.097,32.275 312.817,32.417 317.009,35.795 315.506,41.12 319.857,37.971 
		324.208,41.12 322.705,35.795 326.897,32.417 321.617,32.275 	"/>
	<polygon fill="#F6C515" points="287.564,45.313 285.804,50.548 280.524,50.691 284.716,54.069 283.213,59.392 287.564,56.245 
		291.915,59.392 290.412,54.069 294.604,50.691 289.324,50.548 	"/>
	<polygon fill="#F6C515" points="269.762,76.25 268.002,81.485 262.722,81.627 266.914,85.005 265.411,90.33 269.762,87.181 
		274.113,90.33 272.61,85.005 276.802,81.627 271.522,81.485 	"/>
	<polygon fill="#F6C515" points="265.825,111.805 264.064,117.041 258.785,117.184 262.977,120.561 261.474,125.885 
		265.825,122.736 270.175,125.885 268.672,120.561 272.865,117.184 267.584,117.041 	"/>
	<polygon fill="#F6C515" points="356.445,27.363 354.685,32.599 349.405,32.741 353.597,36.119 352.094,41.443 356.445,38.294 
		360.796,41.443 359.293,36.119 363.485,32.741 358.205,32.599 	"/>
	<polygon fill="#F6C515" points="386.349,44.132 384.589,49.368 379.309,49.51 383.501,52.888 381.998,58.212 386.349,55.064 
		390.7,58.212 389.197,52.888 393.389,49.51 388.109,49.368 	"/>
	<polygon fill="#F6C515" points="409.786,81.072 408.025,86.308 402.745,86.45 406.937,89.828 405.434,95.152 409.786,92.003 
		414.136,95.152 412.633,89.828 416.825,86.45 411.545,86.308 	"/>
	<polygon fill="#F6C515" points="406.88,115.594 405.12,120.83 399.84,120.973 404.032,124.35 402.529,129.674 406.88,126.525 
		411.231,129.674 409.728,124.35 413.92,120.973 408.64,120.83 	"/>
	<polygon fill="#F6C515" points="388.049,147.566 386.29,152.803 381.009,152.945 385.201,156.324 383.698,161.646 388.049,158.5 
		392.4,161.646 390.897,156.324 395.089,152.945 389.81,152.803 	"/>
	<polygon fill="#F6C515" points="355.752,165.838 353.993,171.072 348.712,171.215 352.905,174.594 351.401,179.918 355.752,176.77 
		360.104,179.918 358.601,174.594 362.792,171.215 357.513,171.072 	"/>
	<polygon fill="#F6C515" points="318.648,165.514 316.889,170.75 311.608,170.891 315.8,174.27 314.297,179.594 318.648,176.445 
		323,179.594 321.497,174.27 325.688,170.891 320.409,170.75 	"/>
	<polygon fill="#F6C515" points="289.777,148.748 288.017,153.984 282.737,154.125 286.929,157.504 285.426,162.828 289.777,159.68 
		294.128,162.828 292.625,157.504 296.817,154.125 291.537,153.984 	"/>
	<g>
		<defs>
			<rect id="SVGID_5_" x="109.891" y="19.339" width="703.218" height="169.321"/>
		</defs>
		<clipPath id="SVGID_6_">
			<use xlink:href="#SVGID_5_"  overflow="visible"/>
		</clipPath>
		<path clip-path="url(#SVGID_6_)" fill="#284BA0" d="M813.109,92.56v-6.039h-28.055v34.958h28.055v-6.039h-21.645v-8.42h17.896
			v-6.04h-17.896v-8.42H813.109z M764.949,105.875h-10.922v-13.12h10.922c3.674,0,6.662,2.942,6.662,6.56
			S768.623,105.875,764.949,105.875 M765.146,86.521h-17.529v34.958h6.41v-9.369h11.119c7.1,0,12.873-5.738,12.873-12.794
			C778.02,92.26,772.246,86.521,765.146,86.521 M722.658,115.988c-6.59,0-11.953-5.379-11.953-11.988
			c0-6.611,5.363-11.988,11.953-11.988s11.951,5.377,11.951,11.988C734.609,110.609,729.248,115.988,722.658,115.988
			 M722.658,85.583c-10.125,0-18.361,8.262-18.361,18.417c0,10.154,8.236,18.416,18.361,18.416s18.359-8.262,18.359-18.416
			C741.018,93.845,732.783,85.583,722.658,85.583 M686.369,104.475h-11.705v-11.72h11.705c3.285,0,5.959,2.63,5.959,5.861
			C692.328,101.846,689.654,104.475,686.369,104.475 M691.855,109.506c4.068-1.959,6.881-6.105,6.881-10.89
			c0-6.67-5.457-12.095-12.168-12.095h-18.314v34.958h6.41v-10.77h10.518l8.045,10.77h7.572L691.855,109.506z M652.832,86.52v19.576
			c0,5.455-4.471,9.891-9.967,9.891c-5.475,0-9.928-4.436-9.928-9.891V86.52h-6.408v19.576c0,9,7.326,16.32,16.336,16.32
			c9.029,0,16.377-7.32,16.377-16.32V86.52H652.832z M618.041,92.56v-6.039h-28.053v34.958h28.053v-6.039h-21.643v-8.42h17.895
			v-6.04h-17.895v-8.42H618.041z"/>
	</g>
</g>
</svg>
